<mxfile host="app.diagrams.net" modified="2023-04-28T04:14:20.358Z" agent="Mozilla/5.0 (Windows NT 10.0; Win64; x64) AppleWebKit/537.36 (KHTML, like Gecko) Chrome/112.0.0.0 Safari/537.36" etag="9yw1ZrBDsiIzzifnzgCb" version="21.1.5" type="device">
  <diagram id="j1TicJdDCINCXtOu_pTT" name="Page-1">
    <mxGraphModel dx="1050" dy="587" grid="1" gridSize="10" guides="1" tooltips="1" connect="1" arrows="1" fold="1" page="1" pageScale="1" pageWidth="850" pageHeight="1100" math="0" shadow="0">
      <root>
        <mxCell id="0" />
        <mxCell id="1" parent="0" />
        <mxCell id="ORT7buRJi8pB95PYV__A-3" style="edgeStyle=orthogonalEdgeStyle;rounded=0;orthogonalLoop=1;jettySize=auto;html=1;exitX=0.5;exitY=1;exitDx=0;exitDy=0;entryX=0.5;entryY=0;entryDx=0;entryDy=0;" parent="1" source="ORT7buRJi8pB95PYV__A-1" target="ORT7buRJi8pB95PYV__A-2" edge="1">
          <mxGeometry relative="1" as="geometry" />
        </mxCell>
        <mxCell id="ORT7buRJi8pB95PYV__A-1" value="Inventory Management System" style="ellipse;whiteSpace=wrap;html=1;aspect=fixed;" parent="1" vertex="1">
          <mxGeometry x="385" y="80" width="80" height="80" as="geometry" />
        </mxCell>
        <mxCell id="ORT7buRJi8pB95PYV__A-2" value="Checkout GUI" style="rounded=1;whiteSpace=wrap;html=1;arcSize=0;" parent="1" vertex="1">
          <mxGeometry x="365" y="200" width="120" height="60" as="geometry" />
        </mxCell>
        <mxCell id="ORT7buRJi8pB95PYV__A-17" style="edgeStyle=orthogonalEdgeStyle;rounded=0;orthogonalLoop=1;jettySize=auto;html=1;exitX=0.5;exitY=0;exitDx=0;exitDy=0;entryX=0;entryY=0.5;entryDx=0;entryDy=0;" parent="1" source="ORT7buRJi8pB95PYV__A-4" target="ORT7buRJi8pB95PYV__A-2" edge="1">
          <mxGeometry relative="1" as="geometry" />
        </mxCell>
        <mxCell id="ORT7buRJi8pB95PYV__A-4" value="Item Select" style="rounded=1;whiteSpace=wrap;html=1;" parent="1" vertex="1">
          <mxGeometry x="140" y="310" width="120" height="60" as="geometry" />
        </mxCell>
        <mxCell id="ORT7buRJi8pB95PYV__A-25" style="edgeStyle=orthogonalEdgeStyle;rounded=0;orthogonalLoop=1;jettySize=auto;html=1;exitX=0.5;exitY=0;exitDx=0;exitDy=0;entryX=0;entryY=1;entryDx=0;entryDy=0;" parent="1" source="ORT7buRJi8pB95PYV__A-5" target="ORT7buRJi8pB95PYV__A-2" edge="1">
          <mxGeometry relative="1" as="geometry" />
        </mxCell>
        <mxCell id="ORT7buRJi8pB95PYV__A-5" value="Authentication" style="rounded=1;whiteSpace=wrap;html=1;" parent="1" vertex="1">
          <mxGeometry x="300" y="310" width="120" height="60" as="geometry" />
        </mxCell>
        <mxCell id="ORT7buRJi8pB95PYV__A-34" style="edgeStyle=orthogonalEdgeStyle;rounded=0;orthogonalLoop=1;jettySize=auto;html=1;exitX=0.5;exitY=0;exitDx=0;exitDy=0;entryX=1;entryY=1;entryDx=0;entryDy=0;" parent="1" source="ORT7buRJi8pB95PYV__A-6" target="ORT7buRJi8pB95PYV__A-2" edge="1">
          <mxGeometry relative="1" as="geometry" />
        </mxCell>
        <mxCell id="ORT7buRJi8pB95PYV__A-6" value="Receive Report" style="rounded=1;whiteSpace=wrap;html=1;" parent="1" vertex="1">
          <mxGeometry x="460" y="310" width="120" height="60" as="geometry" />
        </mxCell>
        <mxCell id="ORT7buRJi8pB95PYV__A-32" style="edgeStyle=orthogonalEdgeStyle;rounded=0;orthogonalLoop=1;jettySize=auto;html=1;exitX=1;exitY=1;exitDx=0;exitDy=0;entryX=0.5;entryY=1;entryDx=0;entryDy=0;" parent="1" source="ORT7buRJi8pB95PYV__A-7" target="ORT7buRJi8pB95PYV__A-8" edge="1">
          <mxGeometry relative="1" as="geometry" />
        </mxCell>
        <mxCell id="ORT7buRJi8pB95PYV__A-35" style="edgeStyle=orthogonalEdgeStyle;rounded=0;orthogonalLoop=1;jettySize=auto;html=1;exitX=0.5;exitY=0;exitDx=0;exitDy=0;entryX=1;entryY=0.5;entryDx=0;entryDy=0;" parent="1" source="ORT7buRJi8pB95PYV__A-7" target="ORT7buRJi8pB95PYV__A-2" edge="1">
          <mxGeometry relative="1" as="geometry" />
        </mxCell>
        <mxCell id="ORT7buRJi8pB95PYV__A-7" value="Item Updation" style="rounded=1;whiteSpace=wrap;html=1;" parent="1" vertex="1">
          <mxGeometry x="610" y="310" width="120" height="60" as="geometry" />
        </mxCell>
        <mxCell id="ORT7buRJi8pB95PYV__A-8" value="Item Database" style="rounded=0;whiteSpace=wrap;html=1;" parent="1" vertex="1">
          <mxGeometry x="220" y="480" width="120" height="60" as="geometry" />
        </mxCell>
        <mxCell id="ORT7buRJi8pB95PYV__A-11" value="" style="endArrow=classic;html=1;rounded=0;exitX=0;exitY=0.5;exitDx=0;exitDy=0;entryX=0.25;entryY=0;entryDx=0;entryDy=0;" parent="1" source="ORT7buRJi8pB95PYV__A-4" target="ORT7buRJi8pB95PYV__A-8" edge="1">
          <mxGeometry relative="1" as="geometry">
            <mxPoint x="400" y="390" as="sourcePoint" />
            <mxPoint x="500" y="390" as="targetPoint" />
            <Array as="points">
              <mxPoint x="140" y="350" />
              <mxPoint x="140" y="370" />
            </Array>
          </mxGeometry>
        </mxCell>
        <mxCell id="ORT7buRJi8pB95PYV__A-12" value="Fetch Query" style="edgeLabel;resizable=0;html=1;align=center;verticalAlign=middle;" parent="ORT7buRJi8pB95PYV__A-11" connectable="0" vertex="1">
          <mxGeometry relative="1" as="geometry" />
        </mxCell>
        <mxCell id="ORT7buRJi8pB95PYV__A-14" value="" style="endArrow=classic;html=1;rounded=0;exitX=0.5;exitY=0;exitDx=0;exitDy=0;entryX=0.983;entryY=0.931;entryDx=0;entryDy=0;entryPerimeter=0;" parent="1" source="ORT7buRJi8pB95PYV__A-8" target="ORT7buRJi8pB95PYV__A-4" edge="1">
          <mxGeometry relative="1" as="geometry">
            <mxPoint x="290" y="430" as="sourcePoint" />
            <mxPoint x="390" y="430" as="targetPoint" />
          </mxGeometry>
        </mxCell>
        <mxCell id="ORT7buRJi8pB95PYV__A-15" value="Response Query" style="edgeLabel;resizable=0;html=1;align=center;verticalAlign=middle;" parent="ORT7buRJi8pB95PYV__A-14" connectable="0" vertex="1">
          <mxGeometry relative="1" as="geometry" />
        </mxCell>
        <mxCell id="ORT7buRJi8pB95PYV__A-18" value="User Database" style="rounded=0;whiteSpace=wrap;html=1;" parent="1" vertex="1">
          <mxGeometry x="390" y="480" width="120" height="60" as="geometry" />
        </mxCell>
        <mxCell id="ORT7buRJi8pB95PYV__A-20" value="" style="endArrow=classic;html=1;rounded=0;exitX=0.25;exitY=1;exitDx=0;exitDy=0;entryX=0;entryY=0;entryDx=0;entryDy=0;" parent="1" source="ORT7buRJi8pB95PYV__A-5" target="ORT7buRJi8pB95PYV__A-18" edge="1">
          <mxGeometry relative="1" as="geometry">
            <mxPoint x="360" y="380" as="sourcePoint" />
            <mxPoint x="460" y="380" as="targetPoint" />
          </mxGeometry>
        </mxCell>
        <mxCell id="ORT7buRJi8pB95PYV__A-21" value="Logic Credentials" style="edgeLabel;resizable=0;html=1;align=center;verticalAlign=middle;" parent="ORT7buRJi8pB95PYV__A-20" connectable="0" vertex="1">
          <mxGeometry relative="1" as="geometry" />
        </mxCell>
        <mxCell id="ORT7buRJi8pB95PYV__A-22" value="Login" style="endArrow=classic;html=1;rounded=0;exitX=0.5;exitY=0;exitDx=0;exitDy=0;entryX=1;entryY=1;entryDx=0;entryDy=0;" parent="1" source="ORT7buRJi8pB95PYV__A-18" target="ORT7buRJi8pB95PYV__A-5" edge="1">
          <mxGeometry x="0.7846" y="-691" relative="1" as="geometry">
            <mxPoint x="430" y="400" as="sourcePoint" />
            <mxPoint x="530" y="400" as="targetPoint" />
            <mxPoint as="offset" />
          </mxGeometry>
        </mxCell>
        <mxCell id="ORT7buRJi8pB95PYV__A-23" value="Login Confirmation" style="edgeLabel;resizable=0;html=1;align=center;verticalAlign=middle;" parent="ORT7buRJi8pB95PYV__A-22" connectable="0" vertex="1">
          <mxGeometry relative="1" as="geometry">
            <mxPoint y="-25" as="offset" />
          </mxGeometry>
        </mxCell>
        <mxCell id="ORT7buRJi8pB95PYV__A-26" value="Item Borrowed Database" style="rounded=0;whiteSpace=wrap;html=1;" parent="1" vertex="1">
          <mxGeometry x="570" y="480" width="120" height="60" as="geometry" />
        </mxCell>
        <mxCell id="ORT7buRJi8pB95PYV__A-28" value="" style="endArrow=classic;html=1;rounded=0;exitX=0.25;exitY=1;exitDx=0;exitDy=0;entryX=0;entryY=0;entryDx=0;entryDy=0;" parent="1" source="ORT7buRJi8pB95PYV__A-6" target="ORT7buRJi8pB95PYV__A-26" edge="1">
          <mxGeometry relative="1" as="geometry">
            <mxPoint x="550" y="410" as="sourcePoint" />
            <mxPoint x="650" y="410" as="targetPoint" />
          </mxGeometry>
        </mxCell>
        <mxCell id="ORT7buRJi8pB95PYV__A-29" value="Check item status" style="edgeLabel;resizable=0;html=1;align=center;verticalAlign=middle;" parent="ORT7buRJi8pB95PYV__A-28" connectable="0" vertex="1">
          <mxGeometry relative="1" as="geometry" />
        </mxCell>
        <mxCell id="ORT7buRJi8pB95PYV__A-30" value="" style="endArrow=classic;html=1;rounded=0;exitX=0.75;exitY=0;exitDx=0;exitDy=0;entryX=1;entryY=1;entryDx=0;entryDy=0;" parent="1" source="ORT7buRJi8pB95PYV__A-26" target="ORT7buRJi8pB95PYV__A-6" edge="1">
          <mxGeometry relative="1" as="geometry">
            <mxPoint x="610" y="410" as="sourcePoint" />
            <mxPoint x="710" y="410" as="targetPoint" />
          </mxGeometry>
        </mxCell>
        <mxCell id="ORT7buRJi8pB95PYV__A-31" value="Item Status" style="edgeLabel;resizable=0;html=1;align=center;verticalAlign=middle;" parent="ORT7buRJi8pB95PYV__A-30" connectable="0" vertex="1">
          <mxGeometry relative="1" as="geometry" />
        </mxCell>
        <mxCell id="ORT7buRJi8pB95PYV__A-33" value="Add/Subtract Item" style="text;html=1;strokeColor=none;fillColor=none;align=center;verticalAlign=middle;whiteSpace=wrap;rounded=0;" parent="1" vertex="1">
          <mxGeometry x="550" y="570" width="90" height="30" as="geometry" />
        </mxCell>
        <mxCell id="sLLzP35AF-oCG68Fdfhh-1" value="" style="whiteSpace=wrap;html=1;" vertex="1" parent="1">
          <mxGeometry x="480" y="270" width="120" height="60" as="geometry" />
        </mxCell>
      </root>
    </mxGraphModel>
  </diagram>
</mxfile>
